HIERARCHY
ROOT Hips
{
	OFFSET 0.000000 83.214638 0.000000
	CHANNELS 6 Xposition Yposition Zposition Xrotation Yrotation Zrotation
	JOINT Pelvis
	{
		OFFSET 0.000000 0.000000 0.000000
		CHANNELS 3 Xrotation Yrotation Zrotation
		JOINT LeftUpLeg
		{
			OFFSET 8.479700 -4.795502 -0.379100
			CHANNELS 3 Xrotation Yrotation Zrotation
			JOINT LeftLeg
			{
				OFFSET 0.024144 -32.555107 0.112900
				CHANNELS 3 Xrotation Yrotation Zrotation
				JOINT LeftFoot
				{
					OFFSET -0.024144 -32.638630 -3.012600
					CHANNELS 3 Xrotation Yrotation Zrotation
					JOINT LeftToeBase
					{
						OFFSET 0.970200 -13.225400 11.864200
						CHANNELS 3 Xrotation Yrotation Zrotation
						End Site
						{
							OFFSET 0.000000 12.319262 0.000000
						}
					}
					JOINT LFootTongue
					{
						OFFSET 1.142400 -1.059800 6.665200
						CHANNELS 3 Xrotation Yrotation Zrotation
						End Site
						{
							OFFSET 0.000000 12.319262 0.000000
						}
					}
				}
				JOINT LeftPantLeg
				{
					OFFSET 0.918482 -16.533964 -2.284700
					CHANNELS 3 Xrotation Yrotation Zrotation
					End Site
					{
						OFFSET 0.350399 24.744368 0.000000
					}
				}
			}
		}
		JOINT RightUpLeg
		{
			OFFSET -8.479700 -4.795502 -0.379100
			CHANNELS 3 Xrotation Yrotation Zrotation
			JOINT RightLeg
			{
				OFFSET -0.023144 -32.555092 0.112900
				CHANNELS 3 Xrotation Yrotation Zrotation
				JOINT RightFoot
				{
					OFFSET 0.023144 -32.638641 -3.012700
					CHANNELS 3 Xrotation Yrotation Zrotation
					JOINT RightToeBase
					{
						OFFSET -0.970200 -13.225400 11.864200
						CHANNELS 3 Xrotation Yrotation Zrotation
						End Site
						{
							OFFSET 0.000000 12.319244 0.000000
						}
					}
					JOINT RFootTongue
					{
						OFFSET -1.142200 -1.059800 6.665200
						CHANNELS 3 Xrotation Yrotation Zrotation
						End Site
						{
							OFFSET 0.000000 12.319243 0.000000
						}
					}
				}
				JOINT RightPantLeg
				{
					OFFSET -0.919482 -16.533978 -2.284800
					CHANNELS 3 Xrotation Yrotation Zrotation
					End Site
					{
						OFFSET -0.350400 24.744419 0.000000
					}
				}
			}
		}
	}
	JOINT Spine
	{
		OFFSET 0.000000 7.722000 1.166200
		CHANNELS 3 Xrotation Yrotation Zrotation
		JOINT Spine1
		{
			OFFSET 0.000000 12.024101 0.248800
			CHANNELS 3 Xrotation Yrotation Zrotation
			JOINT Spine2
			{
				OFFSET 0.000000 11.502998 -0.491200
				CHANNELS 3 Xrotation Yrotation Zrotation
				JOINT Neck
				{
					OFFSET 0.000000 18.430702 -3.123100
					CHANNELS 3 Xrotation Yrotation Zrotation
					JOINT Head
					{
						OFFSET 0.000000 9.051102 1.034000
						CHANNELS 3 Xrotation Yrotation Zrotation
						JOINT HairB
						{
							OFFSET 0.208400 24.786102 24.822300
							CHANNELS 3 Xrotation Yrotation Zrotation
							End Site
							{
								OFFSET 0.000000 32.263779 0.000000
							}
						}
						JOINT HairA
						{
							OFFSET -7.081100 24.428299 23.196600
							CHANNELS 3 Xrotation Yrotation Zrotation
							End Site
							{
								OFFSET 0.000000 32.263779 0.000000
							}
						}
						JOINT Hat
						{
							OFFSET 16.728800 15.048294 -15.439601
							CHANNELS 3 Xrotation Yrotation Zrotation
							End Site
							{
								OFFSET 0.000000 32.263779 0.000000
							}
						}
					}
				}
				JOINT LeftShoulder
				{
					OFFSET 6.197800 13.665199 -4.064700
					CHANNELS 3 Xrotation Yrotation Zrotation
					JOINT LeftArm
					{
						OFFSET 7.778100 -0.187103 -1.709300
						CHANNELS 3 Xrotation Yrotation Zrotation
						JOINT LeftForeArm
						{
							OFFSET 22.049376 0.000000 0.000000
							CHANNELS 3 Xrotation Yrotation Zrotation
							JOINT LeftHand
							{
								OFFSET 23.009392 0.000000 0.000000
								CHANNELS 3 Xrotation Yrotation Zrotation
								JOINT LeftHandThumb1
								{
									OFFSET 3.507191 -2.063065 3.133727
									CHANNELS 3 Xrotation Yrotation Zrotation
									JOINT LeftHandThumb2
									{
										OFFSET 3.101337 -1.790558 1.790558
										CHANNELS 3 Xrotation Yrotation Zrotation
										JOINT LeftHandThumb3
										{
											OFFSET 3.058640 -1.765907 1.765906
											CHANNELS 3 Xrotation Yrotation Zrotation
											End Site
											{
												OFFSET -0.415260 3.926476 -0.049563
											}
										}
									}
								}
								JOINT LeftHandIndex1
								{
									OFFSET 11.334419 -0.901459 3.706815
									CHANNELS 3 Xrotation Yrotation Zrotation
									JOINT LeftHandIndex2
									{
										OFFSET 3.283112 0.000000 0.000000
										CHANNELS 3 Xrotation Yrotation Zrotation
										JOINT LeftHandIndex3
										{
											OFFSET 3.323853 0.000000 0.000000
											CHANNELS 3 Xrotation Yrotation Zrotation
											End Site
											{
												OFFSET -1.135597 3.097809 0.402452
											}
										}
									}
								}
								JOINT LeftHandMiddle1
								{
									OFFSET 11.335861 0.000000 0.000000
									CHANNELS 3 Xrotation Yrotation Zrotation
									JOINT LeftHandMiddle2
									{
										OFFSET 3.410492 0.000000 0.000000
										CHANNELS 3 Xrotation Yrotation Zrotation
										JOINT LeftHandMiddle3
										{
											OFFSET 3.312172 0.000000 0.000000
											CHANNELS 3 Xrotation Yrotation Zrotation
											End Site
											{
												OFFSET -1.150200 3.080154 0.400270
											}
										}
									}
								}
								JOINT LeftHandRing1
								{
									OFFSET 11.514786 -0.013176 -3.003090
									CHANNELS 3 Xrotation Yrotation Zrotation
									JOINT LeftHandRing2
									{
										OFFSET 3.053307 0.000000 0.000000
										CHANNELS 3 Xrotation Yrotation Zrotation
										JOINT LeftHandRing3
										{
											OFFSET 3.295807 0.000000 0.000000
											CHANNELS 3 Xrotation Yrotation Zrotation
											End Site
											{
												OFFSET -1.281006 3.013344 0.375733
											}
										}
									}
								}
								JOINT LeftHandPinky1
								{
									OFFSET 10.518692 -0.960396 -5.730441
									CHANNELS 3 Xrotation Yrotation Zrotation
									JOINT LeftHandPinky2
									{
										OFFSET 2.861649 0.000000 0.000000
										CHANNELS 3 Xrotation Yrotation Zrotation
										JOINT LeftHandPinky3
										{
											OFFSET 2.863380 0.000000 0.000000
											CHANNELS 3 Xrotation Yrotation Zrotation
											End Site
											{
												OFFSET -0.843597 2.711159 0.369971
											}
										}
									}
								}
							}
							JOINT LSleeve
							{
								OFFSET 6.676277 -0.344902 -1.011730
								CHANNELS 3 Xrotation Yrotation Zrotation
								End Site
								{
									OFFSET 0.000000 14.885353 0.000000
								}
							}
						}
					}
				}
				JOINT RightShoulder
				{
					OFFSET -6.197800 13.665199 -4.064700
					CHANNELS 3 Xrotation Yrotation Zrotation
					JOINT RightArm
					{
						OFFSET -7.778100 -0.187103 -1.709300
						CHANNELS 3 Xrotation Yrotation Zrotation
						JOINT RightForeArm
						{
							OFFSET -22.049376 0.000000 0.000000
							CHANNELS 3 Xrotation Yrotation Zrotation
							JOINT RightHand
							{
								OFFSET -23.009392 0.000000 0.000000
								CHANNELS 3 Xrotation Yrotation Zrotation
								JOINT RightHandThumb1
								{
									OFFSET -3.507191 -2.063065 3.133727
									CHANNELS 3 Xrotation Yrotation Zrotation
									JOINT RightHandThumb2
									{
										OFFSET -3.101337 -1.790558 1.790558
										CHANNELS 3 Xrotation Yrotation Zrotation
										JOINT RightHandThumb3
										{
											OFFSET -3.058640 -1.765907 1.765906
											CHANNELS 3 Xrotation Yrotation Zrotation
											End Site
											{
												OFFSET 0.415260 3.926476 -0.049563
											}
										}
									}
								}
								JOINT RightHandIndex1
								{
									OFFSET -11.334419 -0.901459 3.706815
									CHANNELS 3 Xrotation Yrotation Zrotation
									JOINT RightHandIndex2
									{
										OFFSET -3.283112 0.000000 0.000000
										CHANNELS 3 Xrotation Yrotation Zrotation
										JOINT RightHandIndex3
										{
											OFFSET -3.323853 0.000000 0.000000
											CHANNELS 3 Xrotation Yrotation Zrotation
											End Site
											{
												OFFSET 1.135597 3.097809 0.402452
											}
										}
									}
								}
								JOINT RightHandMiddle1
								{
									OFFSET -11.335861 0.000000 0.000000
									CHANNELS 3 Xrotation Yrotation Zrotation
									JOINT RightHandMiddle2
									{
										OFFSET -3.410492 0.000000 0.000000
										CHANNELS 3 Xrotation Yrotation Zrotation
										JOINT RightHandMiddle3
										{
											OFFSET -3.312172 0.000000 0.000000
											CHANNELS 3 Xrotation Yrotation Zrotation
											End Site
											{
												OFFSET 1.150200 3.080154 0.400270
											}
										}
									}
								}
								JOINT RightHandRing1
								{
									OFFSET -11.514786 -0.013176 -3.003090
									CHANNELS 3 Xrotation Yrotation Zrotation
									JOINT RightHandRing2
									{
										OFFSET -3.053307 0.000000 0.000000
										CHANNELS 3 Xrotation Yrotation Zrotation
										JOINT RightHandRing3
										{
											OFFSET -3.295807 0.000000 0.000000
											CHANNELS 3 Xrotation Yrotation Zrotation
											End Site
											{
												OFFSET 1.281006 3.013344 0.375733
											}
										}
									}
								}
								JOINT RightHandPinky1
								{
									OFFSET -10.518692 -0.960396 -5.730441
									CHANNELS 3 Xrotation Yrotation Zrotation
									JOINT RightHandPinky2
									{
										OFFSET -2.861649 0.000000 0.000000
										CHANNELS 3 Xrotation Yrotation Zrotation
										JOINT RightHandPinky3
										{
											OFFSET -2.863380 0.000000 0.000000
											CHANNELS 3 Xrotation Yrotation Zrotation
											End Site
											{
												OFFSET 0.843597 2.711159 0.369971
											}
										}
									}
								}
							}
							JOINT RSleeve
							{
								OFFSET -6.676277 -0.344902 -1.011730
								CHANNELS 3 Xrotation Yrotation Zrotation
								End Site
								{
									OFFSET 0.000000 14.885353 0.000000
								}
							}
						}
					}
				}
				JOINT Backpack
				{
					OFFSET 0.000000 -2.471497 36.677502
					CHANNELS 3 Xrotation Yrotation Zrotation
					End Site
					{
						OFFSET 0.000000 20.427315 0.000000
					}
				}
				JOINT Hood
				{
					OFFSET 0.000000 18.754097 -10.431000
					CHANNELS 3 Xrotation Yrotation Zrotation
					JOINT Hood1
					{
						OFFSET 0.000000 -5.011002 -7.685901
						CHANNELS 3 Xrotation Yrotation Zrotation
						End Site
						{
							OFFSET 0.000000 9.175140 0.000000
						}
					}
				}
				JOINT LHoodieString
				{
					OFFSET 5.250500 16.397697 3.089900
					CHANNELS 3 Xrotation Yrotation Zrotation
					JOINT LHoodieString1
					{
						OFFSET 0.257700 -6.364304 3.694600
						CHANNELS 3 Xrotation Yrotation Zrotation
						JOINT LHoodieString2
						{
							OFFSET 0.000000 -9.643799 2.679100
							CHANNELS 3 Xrotation Yrotation Zrotation
							End Site
							{
								OFFSET 0.000000 10.009018 0.000000
							}
						}
					}
				}
				JOINT RHoodieString
				{
					OFFSET -5.250500 16.397697 3.089900
					CHANNELS 3 Xrotation Yrotation Zrotation
					JOINT RHoodieString1
					{
						OFFSET -0.257700 -6.364304 3.694600
						CHANNELS 3 Xrotation Yrotation Zrotation
						JOINT RHoodieString2
						{
							OFFSET 0.000000 -9.643799 2.679100
							CHANNELS 3 Xrotation Yrotation Zrotation
							End Site
							{
								OFFSET 0.000000 10.009018 0.000000
							}
						}
					}
				}
			}
			JOINT LBackpack_Strap
			{
				OFFSET 15.223200 -7.719803 -6.610900
				CHANNELS 3 Xrotation Yrotation Zrotation
				End Site
				{
					OFFSET 0.000000 16.040596 0.000000
				}
			}
			JOINT RBackpack_Strap
			{
				OFFSET -15.223000 -7.719803 -6.610900
				CHANNELS 3 Xrotation Yrotation Zrotation
				End Site
				{
					OFFSET 0.000000 16.040596 0.000000
				}
			}
		}
	}
	JOINT BoyFacialAnim_Joint
	{
		OFFSET 1.000000 -82.208099 -1.550900
		CHANNELS 3 Xrotation Yrotation Zrotation
		End Site
		{
			OFFSET 0.000000 30.012791 0.000000
		}
	}
}
MOTION
Frames: 5
Frame Time: 0.016667
-1.141756 77.058769 0.158167 -5.665205 -42.472923 -2.587570 -0.000001 -0.000002 -0.000000 -26.882376 4.792060 11.707924 34.765820 -12.359330 2.142420 -5.787463 0.645564 -10.001344 -0.000000 0.000002 -0.000000 -0.000000 0.000002 0.000000 -0.000000 0.000002 -0.000000 -2.207370 -14.721768 -16.077738 31.814287 18.999305 -4.412123 -27.942920 -1.559724 4.988988 -0.000000 0.000003 -0.000000 -0.000000 0.000003 -0.000000 0.000001 0.000001 -0.000001 5.901720 0.558272 -0.162124 11.805243 0.991270 -0.356038 11.805237 0.991257 -0.356034 5.454857 -28.042002 -1.570749 -9.679882 -42.734540 2.179716 0.000000 -0.000001 0.000002 0.000000 -0.000001 0.000002 0.000000 -0.000001 0.000002 0.953427 -3.294074 -6.337549 -7.803586 10.695477 -60.595710 -1.858030 -56.426354 -5.060456 4.516201 -4.170911 22.267591 11.334898 9.730346 -4.479192 3.334388 8.219304 1.772113 -0.000000 -0.000000 -0.000001 2.657344 -3.651125 -37.231484 -2.225251 -2.598622 -50.721958 -0.000002 0.000000 -0.000002 0.107959 6.609308 -47.483868 -2.786364 -4.412151 -56.251259 0.000007 -0.000003 -0.000002 -2.805051 11.224156 -62.315367 -2.190483 -4.064439 -66.809297 -0.000000 0.000002 -0.000000 -6.755484 4.974039 -66.027958 -1.326971 -6.176969 -73.865600 -0.000001 0.000002 -0.000002 0.000002 0.000001 0.000002 1.781022 9.143859 7.041888 5.733451 -24.152580 68.587646 -7.143941 60.700253 7.121716 7.495363 6.265624 -16.551765 2.659611 -9.639239 12.705344 9.977296 -18.153781 0.046824 0.000002 0.000001 -0.000000 3.448085 -2.832158 46.578130 -2.544529 2.250434 60.768890 -0.000002 -0.000001 0.000002 -1.797299 -0.803624 42.426885 -4.426283 4.278492 82.714581 -0.000000 0.000002 -0.000002 -4.363434 -0.803153 50.285379 -4.892167 5.732369 89.685971 -0.000002 -0.000003 0.000002 -8.591784 0.616682 50.078841 -5.070517 9.380828 93.712197 -0.000001 0.000001 0.000000 -0.000000 -0.000001 -0.000001 -0.000000 -0.000002 0.000002 -0.000000 -0.000002 0.000002 -0.000000 -0.000002 0.000002 -0.000000 -0.000002 0.000002 -0.000000 -0.000002 0.000001 -0.000002 -0.000001 0.000000 -0.000000 -0.000002 0.000002 -0.000000 -0.000002 0.000001 -0.000002 -0.000001 0.000000 -0.000000 -0.000001 0.000001 -0.000000 -0.000001 0.000001 -0.000001 -0.000002 -0.000000 
-1.160769 77.125671 0.156526 -5.752708 -44.383846 -2.726591 0.000000 0.000002 0.000000 -26.311939 5.166564 12.263786 34.491765 -11.071292 1.990089 -5.939361 0.699113 -10.349874 0.000000 -0.000000 -0.000000 0.000000 -0.000000 -0.000000 0.000000 -0.000001 -0.000001 -3.153601 -14.565541 -16.325129 32.158102 19.594880 -4.734933 -27.581827 -1.522011 5.183417 -0.000000 -0.000001 -0.000000 -0.000000 -0.000001 -0.000000 -0.000000 0.000002 -0.000001 5.947508 0.290612 -0.117984 11.895483 0.464792 -0.236211 11.895480 0.464806 -0.236212 5.195390 -27.982389 -1.762660 -9.294773 -43.262797 2.943791 -0.000001 0.000000 0.000001 -0.000001 0.000000 0.000001 -0.000001 0.000000 0.000001 0.886141 -3.734529 -6.257958 -7.277734 11.319154 -60.862340 -1.912518 -56.844085 -5.070193 4.598236 -4.482975 22.325447 11.166512 9.800993 -4.305343 3.299757 8.317254 1.736560 0.000001 -0.000002 0.000004 2.430040 -3.828128 -36.215538 -2.114154 -2.506269 -49.528441 -0.000001 0.000001 0.000002 0.215172 6.756707 -46.504480 -2.677658 -4.338595 -55.049996 -0.000000 0.000000 0.000002 -2.571686 11.355803 -61.525804 -2.125226 -4.036833 -65.648391 -0.000004 0.000000 0.000001 -6.144480 5.321289 -65.117268 -1.302554 -6.170211 -72.693697 -0.000003 0.000001 -0.000002 0.000002 -0.000001 0.000002 1.849866 8.523537 7.171787 5.962393 -24.111215 68.527015 -7.077266 61.206343 7.218190 7.457473 6.199109 -16.983248 2.643645 -9.750529 12.704183 10.045740 -18.113346 0.095460 -0.000001 -0.000000 0.000002 3.693281 -2.557012 47.479900 -2.589255 2.274942 61.275403 -0.000002 0.000004 0.000004 -1.828321 -0.767078 43.027774 -4.489859 4.286456 83.433629 -0.000003 0.000003 -0.000003 -4.453577 -0.817826 50.903201 -4.955587 5.732789 90.417013 -0.000002 -0.000004 -0.000002 -8.704309 0.527774 50.621606 -5.118175 9.370052 94.249521 -0.000000 0.000004 -0.000001 -0.000001 -0.000000 -0.000002 -0.000000 -0.000002 0.000001 -0.000000 -0.000002 0.000001 -0.000000 -0.000002 0.000001 -0.000000 -0.000002 0.000001 -0.000000 -0.000002 0.000001 -0.000002 0.000001 -0.000001 -0.000000 -0.000002 0.000001 -0.000000 -0.000002 0.000001 -0.000002 0.000001 -0.000001 0.000000 0.000001 -0.000000 0.000000 0.000001 -0.000000 0.000000 0.000002 0.000000 
-1.185390 77.192902 0.150198 -5.877457 -46.301723 -2.875483 0.000000 -0.000001 -0.000000 -25.694181 5.565754 12.790038 34.194563 -9.775700 1.833023 -6.077523 0.753573 -10.705508 -0.000000 0.000000 -0.000000 -0.000000 0.000000 -0.000000 0.000000 -0.000002 -0.000000 -4.083838 -14.367955 -16.529795 32.524049 20.074626 -5.080784 -27.215840 -1.488497 5.393351 0.000000 0.000001 0.000000 0.000000 0.000001 0.000000 -0.000000 -0.000000 -0.000001 5.994653 0.018516 -0.077514 11.989272 -0.070029 -0.121167 11.989276 -0.070039 -0.121165 4.858848 -27.854881 -2.018469 -8.864683 -43.760260 3.691624 -0.000000 -0.000001 -0.000002 -0.000000 -0.000001 -0.000002 -0.000000 -0.000001 -0.000002 0.810236 -4.308836 -6.381128 -6.676104 12.150739 -60.876711 -2.277402 -57.498670 -5.268929 4.466192 -4.693820 22.282237 10.967478 9.825543 -4.124761 3.258313 8.415862 1.703278 -0.000001 -0.000001 -0.000000 2.194174 -4.002795 -35.091128 -1.993687 -2.401467 -48.208937 0.000000 0.000001 0.000000 0.327768 6.910731 -45.419747 -2.561337 -4.255981 -53.740779 0.000001 0.000000 -0.000003 -2.325149 11.481181 -60.605477 -2.055390 -4.005514 -64.391260 0.000002 0.000001 -0.000002 -5.502791 5.688517 -64.103094 -1.276556 -6.162466 -71.433861 0.000003 -0.000000 0.000001 -0.000000 -0.000003 0.000006 1.951317 7.799975 7.121223 6.182265 -23.943582 68.623819 -6.650499 61.549212 7.002533 7.654166 6.217742 -17.779954 2.794228 -9.711130 12.808112 10.023118 -18.127585 0.049067 -0.000001 0.000001 -0.000001 3.955478 -2.272770 48.348023 -2.630130 2.296963 61.736898 -0.000001 0.000001 0.000002 -1.858053 -0.736056 43.602896 -4.552196 4.293544 84.138778 0.000000 -0.000000 -0.000004 -4.541484 -0.832928 51.507495 -5.016384 5.732395 91.119737 0.000001 -0.000003 -0.000002 -8.806171 0.435162 51.132053 -5.163169 9.357122 94.720742 -0.000000 -0.000001 -0.000002 0.000001 0.000000 -0.000000 -0.000000 0.000001 -0.000001 -0.000000 0.000001 -0.000001 -0.000000 0.000001 -0.000001 -0.000000 0.000001 -0.000001 -0.000000 0.000001 -0.000001 -0.000001 -0.000000 0.000001 -0.000000 0.000001 -0.000001 -0.000000 0.000001 -0.000001 -0.000001 -0.000000 0.000001 0.000000 -0.000000 0.000001 0.000000 -0.000000 0.000001 0.000000 -0.000001 -0.000000 
-1.209455 77.254669 0.147085 -6.031078 -48.256075 -3.043750 0.000000 0.000002 -0.000000 -25.042381 5.948568 13.279443 33.912395 -8.411092 1.690476 -6.217267 0.812218 -11.090828 -0.000000 -0.000003 -0.000000 -0.000000 -0.000003 -0.000000 0.000000 0.000001 0.000000 -5.032327 -14.154489 -16.718471 32.918295 20.548057 -5.433797 -26.829459 -1.463004 5.630280 -0.000000 0.000001 0.000000 -0.000000 0.000001 0.000000 -0.000001 0.000001 -0.000000 6.034778 -0.275339 -0.033968 12.069950 -0.647012 0.003708 12.069941 -0.647011 0.003702 4.521435 -27.652197 -2.326643 -8.508133 -44.111431 4.370743 -0.000001 0.000000 -0.000000 -0.000001 0.000000 -0.000000 -0.000001 0.000000 -0.000000 0.756128 -4.664577 -6.306323 -6.104443 12.854886 -61.074855 -2.488541 -57.874863 -5.355670 4.470197 -4.729129 21.933237 10.762680 9.805475 -3.951553 3.232081 8.534456 1.656951 0.000002 0.000001 0.000000 1.952078 -4.165044 -33.893441 -1.868544 -2.287425 -46.810773 -0.000000 0.000000 -0.000002 0.445420 7.069483 -44.252454 -2.441586 -4.166768 -52.371841 -0.000001 0.000005 0.000003 -2.065071 11.603913 -59.582916 -1.981950 -3.970590 -63.058526 -0.000002 0.000001 -0.000000 -4.835944 6.085354 -62.981577 -1.248577 -6.153367 -70.072304 -0.000001 0.000002 -0.000002 -0.000002 0.000000 0.000001 2.018775 7.202335 7.250131 6.408686 -23.946228 68.399864 -6.276776 62.142413 6.935089 7.705297 6.072078 -18.489244 3.013026 -9.639058 12.943719 9.983789 -18.171732 -0.016013 0.000002 -0.000002 -0.000001 4.245907 -1.998531 49.180429 -2.670634 2.318259 62.191201 0.000002 -0.000001 0.000003 -1.884910 -0.716108 44.128807 -4.613447 4.299706 84.829269 -0.000003 -0.000001 -0.000002 -4.614519 -0.847633 52.003722 -5.073337 5.731343 91.776200 -0.000001 -0.000000 0.000002 -8.899415 0.347960 51.604596 -5.216876 9.348920 95.474508 0.000000 0.000001 0.000000 -0.000003 0.000003 -0.000001 0.000002 0.000002 -0.000001 0.000002 0.000002 -0.000001 0.000002 0.000002 -0.000001 0.000002 0.000002 -0.000001 0.000002 0.000002 -0.000001 -0.000000 0.000004 -0.000001 0.000002 0.000002 -0.000001 0.000002 0.000002 -0.000001 -0.000000 0.000004 -0.000001 0.000001 -0.000001 0.000000 0.000001 -0.000001 0.000000 0.000000 0.000002 -0.000000 
-1.229512 77.312775 0.140002 -6.134681 -50.120174 -3.159777 -0.000000 0.000002 0.000000 -24.441007 6.322328 13.713720 33.622340 -7.106452 1.543688 -6.329685 0.868514 -11.458949 -0.000000 0.000002 0.000000 -0.000000 0.000002 0.000000 0.000001 0.000001 0.000001 -5.992249 -13.901556 -16.859543 33.326405 20.843036 -5.780487 -26.434488 -1.451118 5.902333 -0.000000 -0.000000 0.000000 -0.000000 -0.000000 0.000000 0.000002 0.000003 -0.000001 6.063992 -0.515578 -0.008365 12.129429 -1.118517 0.088670 12.129430 -1.118531 0.088672 4.097781 -27.486792 -2.682834 -7.896996 -44.635016 5.189469 -0.000001 -0.000002 -0.000000 -0.000001 -0.000002 -0.000000 -0.000001 -0.000002 -0.000000 0.680398 -5.223119 -6.405292 -5.606941 13.591785 -61.004777 -2.951095 -58.492073 -5.571337 4.296755 -4.406495 22.079070 10.551418 9.759161 -3.787385 3.214278 8.658582 1.605026 -0.000001 -0.000002 0.000001 1.707576 -4.311740 -32.615847 -1.740299 -2.164364 -45.342658 0.000000 0.000001 0.000000 0.564791 7.231708 -42.998725 -2.318197 -4.069903 -50.932686 0.000001 0.000001 0.000004 -1.795394 11.719146 -58.472847 -1.905350 -3.931835 -61.649110 -0.000003 0.000002 0.000002 -4.156403 6.506127 -61.770530 -1.219221 -6.143055 -68.627774 -0.000004 -0.000003 0.000003 -0.000003 -0.000002 0.000004 2.096431 6.732503 7.083139 6.919924 -24.109970 68.744235 -6.249769 62.398300 6.854573 7.748977 6.224232 -19.022089 3.203389 -9.588705 13.059580 9.959655 -18.211490 -0.063781 0.000007 0.000002 -0.000002 4.551093 -1.713767 49.999392 -2.710270 2.338752 62.635116 0.000003 -0.000001 0.000002 -1.910113 -0.701804 44.634525 -4.673250 4.305018 85.504181 -0.000002 0.000000 -0.000000 -4.683912 -0.862921 52.477153 -5.129168 5.729441 92.422534 -0.000001 -0.000002 0.000000 -8.997543 0.272903 52.076494 -5.271515 9.342649 96.280341 -0.000004 -0.000000 0.000000 -0.000001 0.000001 -0.000002 0.000001 -0.000001 -0.000001 0.000001 -0.000001 -0.000001 0.000001 -0.000001 -0.000001 0.000001 -0.000001 -0.000001 0.000001 -0.000001 0.000000 -0.000001 -0.000001 0.000000 0.000001 -0.000001 -0.000001 0.000001 -0.000001 0.000000 -0.000001 -0.000001 0.000000 0.000000 0.000001 -0.000001 0.000000 0.000001 -0.000001 -0.000000 0.000002 0.000000 
